<?xml version="1.0" encoding="UTF-8" standalone="no"?>
<svg
   xmlns:dc="http://purl.org/dc/elements/1.1/"
   xmlns:cc="http://creativecommons.org/ns#"
   xmlns:rdf="http://www.w3.org/1999/02/22-rdf-syntax-ns#"
   xmlns:svg="http://www.w3.org/2000/svg"
   xmlns="http://www.w3.org/2000/svg"
   xmlns:sodipodi="http://sodipodi.sourceforge.net/DTD/sodipodi-0.dtd"
   xmlns:inkscape="http://www.inkscape.org/namespaces/inkscape"
   sodipodi:docname="drawing.svg"
   inkscape:version="1.0 (4035a4fb49, 2020-05-01)"
   id="svg8"
   version="1.1"
   viewBox="0 0 210 297"
   height="297mm"
   width="210mm">
  <defs
     id="defs2">
    <inkscape:path-effect
       lpeversion="1"
       is_visible="true"
       id="path-effect126"
       effect="spiro" />
    <inkscape:path-effect
       lpeversion="1"
       is_visible="true"
       id="path-effect122"
       effect="spiro" />
    <inkscape:path-effect
       lpeversion="1"
       is_visible="true"
       id="path-effect118"
       effect="spiro" />
    <inkscape:path-effect
       lpeversion="1"
       is_visible="true"
       id="path-effect114"
       effect="spiro" />
    <inkscape:path-effect
       lpeversion="1"
       is_visible="true"
       id="path-effect110"
       effect="spiro" />
    <inkscape:path-effect
       lpeversion="1"
       is_visible="true"
       id="path-effect106"
       effect="spiro" />
    <inkscape:path-effect
       lpeversion="1"
       is_visible="true"
       id="path-effect102"
       effect="spiro" />
    <inkscape:path-effect
       lpeversion="1"
       is_visible="true"
       id="path-effect98"
       effect="spiro" />
    <inkscape:path-effect
       lpeversion="1"
       is_visible="true"
       id="path-effect94"
       effect="spiro" />
    <inkscape:path-effect
       lpeversion="1"
       is_visible="true"
       id="path-effect90"
       effect="spiro" />
    <inkscape:path-effect
       lpeversion="1"
       is_visible="true"
       id="path-effect86"
       effect="spiro" />
    <inkscape:path-effect
       lpeversion="1"
       is_visible="true"
       id="path-effect82"
       effect="spiro" />
    <inkscape:path-effect
       lpeversion="1"
       is_visible="true"
       id="path-effect74"
       effect="spiro" />
    <inkscape:path-effect
       lpeversion="1"
       is_visible="true"
       id="path-effect66"
       effect="spiro" />
    <inkscape:path-effect
       lpeversion="1"
       is_visible="true"
       id="path-effect62"
       effect="spiro" />
    <inkscape:path-effect
       lpeversion="1"
       is_visible="true"
       id="path-effect58"
       effect="spiro" />
    <inkscape:path-effect
       lpeversion="1"
       is_visible="true"
       id="path-effect54"
       effect="spiro" />
    <inkscape:path-effect
       lpeversion="1"
       is_visible="true"
       id="path-effect50"
       effect="spiro" />
    <inkscape:path-effect
       lpeversion="1"
       is_visible="true"
       id="path-effect46"
       effect="spiro" />
    <inkscape:path-effect
       lpeversion="1"
       is_visible="true"
       id="path-effect42"
       effect="spiro" />
    <inkscape:path-effect
       lpeversion="1"
       is_visible="true"
       id="path-effect38"
       effect="spiro" />
    <inkscape:path-effect
       lpeversion="1"
       is_visible="true"
       id="path-effect34"
       effect="spiro" />
    <inkscape:path-effect
       lpeversion="1"
       is_visible="true"
       id="path-effect30"
       effect="spiro" />
    <inkscape:path-effect
       lpeversion="1"
       is_visible="true"
       id="path-effect26"
       effect="spiro" />
  </defs>
  <sodipodi:namedview
     inkscape:window-maximized="1"
     inkscape:window-y="-8"
     inkscape:window-x="-8"
     inkscape:window-height="2097"
     inkscape:window-width="4096"
     showgrid="false"
     inkscape:document-rotation="0"
     inkscape:current-layer="layer1"
     inkscape:document-units="mm"
     inkscape:cy="404.71171"
     inkscape:cx="710.4654"
     inkscape:zoom="2.8"
     inkscape:pageshadow="2"
     inkscape:pageopacity="0.0"
     borderopacity="1.0"
     bordercolor="#666666"
     pagecolor="#ffffff"
     id="base" />
  <metadata
     id="metadata5">
    <rdf:RDF>
      <cc:Work
         rdf:about="">
        <dc:format>image/svg+xml</dc:format>
        <dc:type
           rdf:resource="http://purl.org/dc/dcmitype/StillImage" />
        <dc:title></dc:title>
      </cc:Work>
    </rdf:RDF>
  </metadata>
  <g
     id="layer1"
     inkscape:groupmode="layer"
     inkscape:label="Layer 1">
    <path
       d="m 95.147952,72.897764 c 0.02693,-0.157533 0.117453,-0.303258 0.246742,-0.397206 0.124061,-0.09015 0.276925,-0.131175 0.428175,-0.156506 0.164766,-0.02759 0.340104,-0.03747 0.493141,0.02953 0.09343,0.0409 0.174998,0.109075 0.273522,0.13543 0.04926,0.01318 0.102822,0.01502 0.150435,-0.0032 0.02381,-0.0091 0.04582,-0.02324 0.06325,-0.04184 0.01743,-0.01861 0.03017,-0.04177 0.03546,-0.06671 0.0073,-0.03447 -2.1e-4,-0.07184 -0.02029,-0.100798 m 0.334081,7.082636 c 0.210298,-0.128259 0.443294,-0.219185 0.684879,-0.267272 0.252812,-0.05032 0.512351,-0.05379 0.768401,-0.08352 0.381354,-0.04429 0.771453,-0.155926 1.052372,-0.417607 0.09331,-0.08692 0.172587,-0.18885 0.23386,-0.300678 m 1.5368,8.285352 v 0 l 0.58466,-0.100225 h 1.38646 l 0.96885,-0.634764 m 0.23616,8.633709 c 0.11165,-0.15182 0.28084,-0.260232 0.46542,-0.298241 0.23205,-0.04778 0.47086,0.01301 0.70158,0.06682 0.40009,0.09331 0.80893,0.166863 1.21942,0.150339 0.71978,-0.02898 1.42383,-0.34733 1.921,-0.868629 m -1.85057,9.217946 c -0.0445,-0.0781 -0.0505,-0.177 -0.0159,-0.25996 0.0346,-0.083 0.10918,-0.14818 0.19601,-0.1715 0.0487,-0.0131 0.10033,-0.0135 0.15002,-0.005 0.0497,0.009 0.0975,0.0261 0.14295,0.048 0.0908,0.0439 0.17175,0.10543 0.25827,0.15727 0.38582,0.23116 0.85528,0.25719 1.30294,0.30068 0.54697,0.0531 1.09114,0.14117 1.64032,0.16119 0.54918,0.02 1.11079,-0.0309 1.61703,-0.24469 0.21993,-0.0929 0.42717,-0.21575 0.6142,-0.36413 m -3.73251,10.20534 v 0 l 1.61492,0.53217 2.35531,0.41761 2.75622,-0.13364 0.66817,-0.3842 0.54288,-0.33745 m -3.35454,12.18973 v 0 l 0.23623,-0.18899 0.59059,0.0709 0.92132,0.29529 2.97656,0.0591 1.51191,-0.42523 0.76776,-0.67327 -0.2008,-0.64964 m -5.85863,13.55983 v 0 l 2.83482,0.42523 4.40579,-0.0236 2.13792,-0.16537 0.66146,-0.33073 0.0709,-0.28348 m 0.94491,14.07959 v 0 l 1.16761,-0.2844 0.7517,-0.31739 -0.0418,-0.17539 -0.36564,-0.21501 m -15.35524,0.27167 c -0.0126,-0.0576 -0.0473,-0.11013 -0.0955,-0.1442 -0.0482,-0.0341 -0.10922,-0.0494 -0.16775,-0.0421 -0.0585,0.007 -0.11395,0.0372 -0.15223,0.0821 -0.0383,0.0449 -0.059,0.10433 -0.057,0.16328 0.001,0.0407 0.0133,0.0807 0.0318,0.11689 0.0186,0.0362 0.0437,0.0688 0.0721,0.098 0.0567,0.0584 0.12571,0.1031 0.19136,0.15126 0.25667,0.18831 0.46694,0.43356 0.72052,0.62602 0.29536,0.22417 0.6409,0.37056 0.98037,0.51972 0.31295,0.13751 0.62403,0.27927 0.93313,0.42522 m -10.91406,-2.40964 v 0 l -0.26032,0.0477 -0.0919,0.1921 0.0167,0.48443 0.26727,0.48442 0.71829,0.35079 0.2088,0.14199 0.0861,0.23568 m -8.36273,-1.37014 c -0.05612,0.0472 -0.09689,0.11239 -0.114795,0.1835 -0.0179,0.0711 -0.01285,0.14783 0.01422,0.21599 0.03977,0.10012 0.123739,0.1771 0.216205,0.23237 0.09247,0.0553 0.194593,0.0919 0.293277,0.13512 0.02786,0.0122 0.05564,0.025 0.08068,0.0423 0.02504,0.0172 0.04742,0.0392 0.0613,0.0663 0.02075,0.0404 0.02047,0.0906 8.83e-4,0.13159 -0.01959,0.041 -0.05762,0.0724 -0.10111,0.0856 -0.03931,0.0119 -0.08163,0.01 -0.122041,0.002 -0.04041,-0.007 -0.0798,-0.0196 -0.120171,-0.0272 -0.143224,-0.027 -0.289951,0.005 -0.434314,0.0251 -0.339641,0.0471 -0.684426,0.0274 -1.027316,0.025 -0.08488,-6e-4 -0.172377,3.7e-4 -0.250566,0.0334 -0.06851,0.0289 -0.124561,0.0803 -0.183748,0.12529 -0.04259,0.0324 -0.08861,0.0632 -0.11693,0.10858 -0.02044,0.0328 -0.03023,0.0713 -0.03388,0.10973 -0.0037,0.0385 -0.0014,0.0772 4.68e-4,0.11577 0.07864,1.58376 -0.330594,3.19318 0,4.74404 0.0035,0.0166 0.0072,0.0332 0.0084,0.0501 0.0023,0.0311 -0.0037,0.0627 -0.01631,0.0912 -0.01262,0.0285 -0.0318,0.054 -0.05507,0.0748 -0.04655,0.0416 -0.10859,0.0634 -0.170827,0.0678 -0.02501,0.002 -0.05012,8.7e-4 -0.07517,0 -0.695699,-0.0242 -1.392047,-0.0298 -2.088044,-0.0167 m 4.234853,-6.62179 c 1.186045,0.4404 2.383506,0.85006 3.590774,1.22842 1.149372,0.36022 2.351952,0.6956 3.543532,0.51972 0.42546,-0.0628 0.84125,-0.19074 1.22842,-0.37798 m 9.96912,0.47247 c -0.57382,0.14131 -1.15907,0.23621 -1.74814,0.28348 -0.59717,0.0479 -1.19814,0.0469 -1.79539,0 -0.78026,-0.0613 -1.55282,-0.20055 -2.3151,-0.37797 -0.9036,-0.21031 -1.79726,-0.47541 -2.64583,-0.85045 -0.86214,-0.38104 -1.67441,-0.87477 -2.4096,-1.46466 m 22.30059,1.13393 c -1.26064,0.0846 -2.52061,0.17908 -3.77976,0.28348 -1.24212,0.10299 -2.49202,0.21562 -3.73251,0.0945 -1.03661,-0.10121 -2.04947,-0.36407 -3.07106,-0.56697 -1.23108,-0.24451 -2.47934,-0.40252 -3.73252,-0.47247 m 3.26005,-13.04018 c 0.7704,1.57249 1.70643,3.06378 2.78758,4.44122 0.91678,1.16802 1.93518,2.25161 2.92931,3.35454 0.8889,0.98618 1.76812,1.9971 2.83482,2.78758 0.91359,0.67702 1.94426,1.17682 2.97656,1.65364 0.34552,0.1596 0.69201,0.31709 1.03944,0.47247 M 113.818,124.8736 c 0.0732,0.37216 0.18416,0.73686 0.33073,1.08668 0.5641,1.34636 1.62124,2.412 2.59858,3.49629 1.45631,1.61567 2.79628,3.35805 4.48847,4.7247 0.71421,0.57681 1.48433,1.08073 2.26786,1.55915 0.45186,0.27591 0.90868,0.5437 1.37016,0.8032 m -15.63876,-23.95424 c 0.53218,0.6641 1.06766,1.32557 1.6064,1.98437 1.51168,1.84856 3.055,3.68232 4.81919,5.29167 0.90399,0.82464 1.86436,1.58852 2.88207,2.26785 0.66979,0.44709 1.36414,0.85739 2.07887,1.22843 M 107.06168,102.762 c 0.47427,0.94201 1.02809,1.84396 1.65364,2.69308 1.00134,1.35922 2.18048,2.5763 3.26005,3.87425 0.30814,0.37047 0.6094,0.74889 0.95965,1.07983 0.35025,0.33094 0.75489,0.61557 1.21371,0.76281 0.51746,0.16606 1.07415,0.14973 1.60923,0.24475 0.26754,0.0475 0.53284,0.12426 0.76822,0.26002 0.23539,0.13575 0.44013,0.33422 0.55186,0.58191 0.0601,0.13329 0.0925,0.27901 0.0945,0.42522 M 104.60491,94.494047 c 0.70313,0.852893 1.42789,1.687948 2.17336,2.504091 1.02961,1.127223 2.10037,2.219896 3.26005,3.212802 0.92432,0.79139 1.90392,1.51819 2.92931,2.17336 M 101.42878,86.595327 c 0.83695,1.089217 1.75336,2.117372 2.73952,3.073599 0.72526,0.703245 1.48787,1.367322 2.27179,2.00452 0.80211,0.651978 1.62685,1.276108 2.47224,1.870887 M 97.152472,79.37905 c 0.947094,0.902227 1.9049,1.793209 2.873148,2.672694 1.42537,1.294704 2.87338,2.564494 4.34313,3.808592 M 95.147952,72.897764 c 0.383689,1.206844 1.025939,2.330783 1.870884,3.274052 0.801899,0.895214 1.785366,1.627096 2.873148,2.138156 M 91.673446,62.741521 c 0.363421,1.743733 0.972654,3.436048 1.804069,5.011303 0.880703,1.668641 2.010698,3.205432 3.34087,4.543581"
       style="fill:none;stroke:#000000;stroke-width:0.264583px;stroke-linecap:butt;stroke-linejoin:miter;stroke-opacity:1"
       id="path124" />
  </g>
</svg>
