  0
SECTION
  2
HEADER
  9
$ACADVER
  1
AC1014
  9
$HANDSEED
  5
FFFF
  9
$MEASUREMENT
 70
     1
  0
ENDSEC
  0
SECTION
  2
TABLES
  0
TABLE
  2
VPORT
  5
8
330
0
100
AcDbSymbolTable
 70
     4
  0
VPORT
  5
2E
330
8
100
AcDbSymbolTableRecord
100
AcDbViewportTableRecord
  2
*ACTIVE
 70
     0
 10
0.0
 20
0.0
 11
1.0
 21
1.0
 12
210.0
 22
148.5
 13
0.0
 23
0.0
 14
10.0
 24
10.0
 15
10.0
 25
10.0
 16
0.0
 26
0.0
 36
1.0
 17
0.0
 27
0.0
 37
0.0
 40
341.0
 41
1.24
 42
50.0
 43
0.0
 44
0.0
 50
0.0
 51
0.0
 71
     0
 72
   100
 73
     1
 74
     3
 75
     0
 76
     0
 77
     0
 78
     0
  0
ENDTAB
  0
TABLE
  2
LTYPE
  5
5
330
0
100
AcDbSymbolTable
 70
     1
  0
LTYPE
  5
14
330
5
100
AcDbSymbolTableRecord
100
AcDbLinetypeTableRecord
  2
BYBLOCK
 70
     0
  3

 72
    65
 73
     0
 40
0.0
  0
LTYPE
  5
15
330
5
100
AcDbSymbolTableRecord
100
AcDbLinetypeTableRecord
  2
BYLAYER
 70
     0
  3

 72
    65
 73
     0
 40
0.0
  0
LTYPE
  5
16
330
5
100
AcDbSymbolTableRecord
100
AcDbLinetypeTableRecord
  2
CONTINUOUS
 70
     0
  3
Solid line
 72
    65
 73
     0
 40
0.0
  0
ENDTAB
  0
TABLE
  2
LAYER
  5
2
100
AcDbSymbolTable
 70
2
  0
LAYER
  5
50
100
AcDbSymbolTableRecord
100
AcDbLayerTableRecord
  2
0
 70
0
  6
CONTINUOUS
  0
LAYER
  5
51
100
AcDbSymbolTableRecord
100
AcDbLayerTableRecord
  2
Layer_1
 70
0
  6
CONTINUOUS
  0
ENDTAB
  0
TABLE
  2
STYLE
  5
3
330
0
100
AcDbSymbolTable
 70
     1
  0
STYLE
  5
11
330
3
100
AcDbSymbolTableRecord
100
AcDbTextStyleTableRecord
  2
STANDARD
 70
     0
 40
0.0
 41
1.0
 50
0.0
 71
     0
 42
2.5
  3
txt
  4

  0
ENDTAB
  0
TABLE
  2
VIEW
  5
6
330
0
100
AcDbSymbolTable
 70
     0
  0
ENDTAB
  0
TABLE
  2
UCS
  5
7
330
0
100
AcDbSymbolTable
 70
     0
  0
ENDTAB
  0
TABLE
  2
APPID
  5
9
330
0
100
AcDbSymbolTable
 70
     2
  0
APPID
  5
12
330
9
100
AcDbSymbolTableRecord
100
AcDbRegAppTableRecord
  2
ACAD
 70
     0
  0
ENDTAB
  0
TABLE
  2
DIMSTYLE
  5
A
330
0
100
AcDbSymbolTable
 70
     1
  0
DIMSTYLE
105
27
330
A
100
AcDbSymbolTableRecord
100
AcDbDimStyleTableRecord
  2
ISO-25
 70
     0
  3

  4

  5

  6

  7

 40
1.0
 41
2.5
 42
0.625
 43
3.75
 44
1.25
 45
0.0
 46
0.0
 47
0.0
 48
0.0
140
2.5
141
2.5
142
0.0
143
0.03937007874016
144
1.0
145
0.0
146
1.0
147
0.625
 71
     0
 72
     0
 73
     0
 74
     0
 75
     0
 76
     0
 77
     1
 78
     8
170
     0
171
     3
172
     1
173
     0
174
     0
175
     0
176
     0
177
     0
178
     0
270
     2
271
     2
272
     2
273
     2
274
     3
340
11
275
     0
280
     0
281
     0
282
     0
283
     0
284
     8
285
     0
286
     0
287
     3
288
     0
  0
ENDTAB
  0
TABLE
  2
BLOCK_RECORD
  5
1
330
0
100
AcDbSymbolTable
 70
     1
  0
BLOCK_RECORD
  5
1F
330
1
100
AcDbSymbolTableRecord
100
AcDbBlockTableRecord
  2
*MODEL_SPACE
  0
BLOCK_RECORD
  5
1B
330
1
100
AcDbSymbolTableRecord
100
AcDbBlockTableRecord
  2
*PAPER_SPACE
  0
ENDTAB
  0
ENDSEC
  0
SECTION
  2
BLOCKS
  0
BLOCK
  5
20
330
1F
100
AcDbEntity
  8
0
100
AcDbBlockBegin
  2
*MODEL_SPACE
 70
     0
 10
0.0
 20
0.0
 30
0.0
  3
*MODEL_SPACE
  1

  0
ENDBLK
  5
21
330
1F
100
AcDbEntity
  8
0
100
AcDbBlockEnd
  0
BLOCK
  5
1C
330
1B
100
AcDbEntity
 67
     1
  8
0
100
AcDbBlockBegin
  2
*PAPER_SPACE
  1

  0
ENDBLK
  5
1D
330
1B
100
AcDbEntity
 67
     1
  8
0
100
AcDbBlockEnd
  0
ENDSEC
  0
SECTION
  2
ENTITIES
  0
SPLINE
  5
100
100
AcDbEntity
  8
Layer_1
 62
7
100
AcDbSpline
 70
8
 71
3
 72
8
 73
4
 74
0
 40
0
 40
0
 40
0
 40
0
 40
1
 40
1
 40
1
 40
1
 10
95.147952
 20
224.102236
 30
0.0
 10
95.174882
 20
224.259769
 30
0.0
 10
95.265405
 20
224.405494
 30
0.0
 10
95.394694
 20
224.499442
 30
0.0
  0
SPLINE
  5
101
100
AcDbEntity
  8
Layer_1
 62
7
100
AcDbSpline
 70
8
 71
3
 72
8
 73
4
 74
0
 40
0
 40
0
 40
0
 40
0
 40
1
 40
1
 40
1
 40
1
 10
95.394694
 20
224.499442
 30
0.0
 10
95.518755
 20
224.589592
 30
0.0
 10
95.671619
 20
224.630617
 30
0.0
 10
95.822869
 20
224.655948
 30
0.0
  0
SPLINE
  5
102
100
AcDbEntity
  8
Layer_1
 62
7
100
AcDbSpline
 70
8
 71
3
 72
8
 73
4
 74
0
 40
0
 40
0
 40
0
 40
0
 40
1
 40
1
 40
1
 40
1
 10
95.822869
 20
224.655948
 30
0.0
 10
95.987635
 20
224.683538
 30
0.0
 10
96.162973
 20
224.693418
 30
0.0
 10
96.316010
 20
224.626418
 30
0.0
  0
SPLINE
  5
103
100
AcDbEntity
  8
Layer_1
 62
7
100
AcDbSpline
 70
8
 71
3
 72
8
 73
4
 74
0
 40
0
 40
0
 40
0
 40
0
 40
1
 40
1
 40
1
 40
1
 10
96.316010
 20
224.626418
 30
0.0
 10
96.409440
 20
224.585518
 30
0.0
 10
96.491008
 20
224.517343
 30
0.0
 10
96.589532
 20
224.490988
 30
0.0
  0
SPLINE
  5
104
100
AcDbEntity
  8
Layer_1
 62
7
100
AcDbSpline
 70
8
 71
3
 72
8
 73
4
 74
0
 40
0
 40
0
 40
0
 40
0
 40
1
 40
1
 40
1
 40
1
 10
96.589532
 20
224.490988
 30
0.0
 10
96.638792
 20
224.477808
 30
0.0
 10
96.692354
 20
224.475968
 30
0.0
 10
96.739967
 20
224.494188
 30
0.0
  0
SPLINE
  5
105
100
AcDbEntity
  8
Layer_1
 62
7
100
AcDbSpline
 70
8
 71
3
 72
8
 73
4
 74
0
 40
0
 40
0
 40
0
 40
0
 40
1
 40
1
 40
1
 40
1
 10
96.739967
 20
224.494188
 30
0.0
 10
96.763777
 20
224.503288
 30
0.0
 10
96.785787
 20
224.517428
 30
0.0
 10
96.803217
 20
224.536028
 30
0.0
  0
SPLINE
  5
106
100
AcDbEntity
  8
Layer_1
 62
7
100
AcDbSpline
 70
8
 71
3
 72
8
 73
4
 74
0
 40
0
 40
0
 40
0
 40
0
 40
1
 40
1
 40
1
 40
1
 10
96.803217
 20
224.536028
 30
0.0
 10
96.820647
 20
224.554638
 30
0.0
 10
96.833387
 20
224.577798
 30
0.0
 10
96.838677
 20
224.602738
 30
0.0
  0
SPLINE
  5
107
100
AcDbEntity
  8
Layer_1
 62
7
100
AcDbSpline
 70
8
 71
3
 72
8
 73
4
 74
0
 40
0
 40
0
 40
0
 40
0
 40
1
 40
1
 40
1
 40
1
 10
96.838677
 20
224.602738
 30
0.0
 10
96.845977
 20
224.637208
 30
0.0
 10
96.838467
 20
224.674578
 30
0.0
 10
96.818387
 20
224.703536
 30
0.0
  0
SPLINE
  5
108
100
AcDbEntity
  8
Layer_1
 62
7
100
AcDbSpline
 70
8
 71
3
 72
8
 73
4
 74
0
 40
0
 40
0
 40
0
 40
0
 40
1
 40
1
 40
1
 40
1
 10
97.152468
 20
217.620900
 30
0.0
 10
97.362766
 20
217.749159
 30
0.0
 10
97.595762
 20
217.840085
 30
0.0
 10
97.837347
 20
217.888172
 30
0.0
  0
SPLINE
  5
109
100
AcDbEntity
  8
Layer_1
 62
7
100
AcDbSpline
 70
8
 71
3
 72
8
 73
4
 74
0
 40
0
 40
0
 40
0
 40
0
 40
1
 40
1
 40
1
 40
1
 10
97.837347
 20
217.888172
 30
0.0
 10
98.090159
 20
217.938492
 30
0.0
 10
98.349698
 20
217.941962
 30
0.0
 10
98.605748
 20
217.971692
 30
0.0
  0
SPLINE
  5
10a
100
AcDbEntity
  8
Layer_1
 62
7
100
AcDbSpline
 70
8
 71
3
 72
8
 73
4
 74
0
 40
0
 40
0
 40
0
 40
0
 40
1
 40
1
 40
1
 40
1
 10
98.605748
 20
217.971692
 30
0.0
 10
98.987102
 20
218.015982
 30
0.0
 10
99.377201
 20
218.127618
 30
0.0
 10
99.658120
 20
218.389299
 30
0.0
  0
SPLINE
  5
10b
100
AcDbEntity
  8
Layer_1
 62
7
100
AcDbSpline
 70
8
 71
3
 72
8
 73
4
 74
0
 40
0
 40
0
 40
0
 40
0
 40
1
 40
1
 40
1
 40
1
 10
99.658120
 20
218.389299
 30
0.0
 10
99.751430
 20
218.476219
 30
0.0
 10
99.830707
 20
218.578149
 30
0.0
 10
99.891980
 20
218.689977
 30
0.0
  0
SPLINE
  5
10c
100
AcDbEntity
  8
Layer_1
 62
7
100
AcDbSpline
 70
8
 71
3
 72
8
 73
4
 74
0
 40
0
 40
0
 40
0
 40
0
 40
1
 40
1
 40
1
 40
1
 10
104.604910
 20
202.505905
 30
0.0
 10
104.716560
 20
202.657725
 30
0.0
 10
104.885750
 20
202.766137
 30
0.0
 10
105.070330
 20
202.804146
 30
0.0
  0
SPLINE
  5
10d
100
AcDbEntity
  8
Layer_1
 62
7
100
AcDbSpline
 70
8
 71
3
 72
8
 73
4
 74
0
 40
0
 40
0
 40
0
 40
0
 40
1
 40
1
 40
1
 40
1
 10
105.070330
 20
202.804146
 30
0.0
 10
105.302380
 20
202.851926
 30
0.0
 10
105.541190
 20
202.791136
 30
0.0
 10
105.771910
 20
202.737326
 30
0.0
  0
SPLINE
  5
10e
100
AcDbEntity
  8
Layer_1
 62
7
100
AcDbSpline
 70
8
 71
3
 72
8
 73
4
 74
0
 40
0
 40
0
 40
0
 40
0
 40
1
 40
1
 40
1
 40
1
 10
105.771910
 20
202.737326
 30
0.0
 10
106.172000
 20
202.644016
 30
0.0
 10
106.580840
 20
202.570463
 30
0.0
 10
106.991330
 20
202.586987
 30
0.0
  0
SPLINE
  5
10f
100
AcDbEntity
  8
Layer_1
 62
7
100
AcDbSpline
 70
8
 71
3
 72
8
 73
4
 74
0
 40
0
 40
0
 40
0
 40
0
 40
1
 40
1
 40
1
 40
1
 10
106.991330
 20
202.586987
 30
0.0
 10
107.711110
 20
202.615967
 30
0.0
 10
108.415160
 20
202.934317
 30
0.0
 10
108.912330
 20
203.455616
 30
0.0
  0
SPLINE
  5
110
100
AcDbEntity
  8
Layer_1
 62
7
100
AcDbSpline
 70
8
 71
3
 72
8
 73
4
 74
0
 40
0
 40
0
 40
0
 40
0
 40
1
 40
1
 40
1
 40
1
 10
107.061760
 20
194.237670
 30
0.0
 10
107.017260
 20
194.315770
 30
0.0
 10
107.011260
 20
194.414670
 30
0.0
 10
107.045860
 20
194.497630
 30
0.0
  0
SPLINE
  5
111
100
AcDbEntity
  8
Layer_1
 62
7
100
AcDbSpline
 70
8
 71
3
 72
8
 73
4
 74
0
 40
0
 40
0
 40
0
 40
0
 40
1
 40
1
 40
1
 40
1
 10
107.045860
 20
194.497630
 30
0.0
 10
107.080460
 20
194.580630
 30
0.0
 10
107.155040
 20
194.645810
 30
0.0
 10
107.241870
 20
194.669130
 30
0.0
  0
SPLINE
  5
112
100
AcDbEntity
  8
Layer_1
 62
7
100
AcDbSpline
 70
8
 71
3
 72
8
 73
4
 74
0
 40
0
 40
0
 40
0
 40
0
 40
1
 40
1
 40
1
 40
1
 10
107.241870
 20
194.669130
 30
0.0
 10
107.290570
 20
194.682230
 30
0.0
 10
107.342200
 20
194.682630
 30
0.0
 10
107.391890
 20
194.674130
 30
0.0
  0
SPLINE
  5
113
100
AcDbEntity
  8
Layer_1
 62
7
100
AcDbSpline
 70
8
 71
3
 72
8
 73
4
 74
0
 40
0
 40
0
 40
0
 40
0
 40
1
 40
1
 40
1
 40
1
 10
107.391890
 20
194.674130
 30
0.0
 10
107.441590
 20
194.665130
 30
0.0
 10
107.489390
 20
194.648030
 30
0.0
 10
107.534840
 20
194.626130
 30
0.0
  0
SPLINE
  5
114
100
AcDbEntity
  8
Layer_1
 62
7
100
AcDbSpline
 70
8
 71
3
 72
8
 73
4
 74
0
 40
0
 40
0
 40
0
 40
0
 40
1
 40
1
 40
1
 40
1
 10
107.534840
 20
194.626130
 30
0.0
 10
107.625640
 20
194.582230
 30
0.0
 10
107.706590
 20
194.520700
 30
0.0
 10
107.793110
 20
194.468860
 30
0.0
  0
SPLINE
  5
115
100
AcDbEntity
  8
Layer_1
 62
7
100
AcDbSpline
 70
8
 71
3
 72
8
 73
4
 74
0
 40
0
 40
0
 40
0
 40
0
 40
1
 40
1
 40
1
 40
1
 10
107.793110
 20
194.468860
 30
0.0
 10
108.178930
 20
194.237700
 30
0.0
 10
108.648390
 20
194.211670
 30
0.0
 10
109.096050
 20
194.168180
 30
0.0
  0
SPLINE
  5
116
100
AcDbEntity
  8
Layer_1
 62
7
100
AcDbSpline
 70
8
 71
3
 72
8
 73
4
 74
0
 40
0
 40
0
 40
0
 40
0
 40
1
 40
1
 40
1
 40
1
 10
109.096050
 20
194.168180
 30
0.0
 10
109.643020
 20
194.115080
 30
0.0
 10
110.187190
 20
194.027010
 30
0.0
 10
110.736370
 20
194.006990
 30
0.0
  0
SPLINE
  5
117
100
AcDbEntity
  8
Layer_1
 62
7
100
AcDbSpline
 70
8
 71
3
 72
8
 73
4
 74
0
 40
0
 40
0
 40
0
 40
0
 40
1
 40
1
 40
1
 40
1
 10
110.736370
 20
194.006990
 30
0.0
 10
111.285550
 20
193.986990
 30
0.0
 10
111.847160
 20
194.037890
 30
0.0
 10
112.353400
 20
194.251680
 30
0.0
  0
SPLINE
  5
118
100
AcDbEntity
  8
Layer_1
 62
7
100
AcDbSpline
 70
8
 71
3
 72
8
 73
4
 74
0
 40
0
 40
0
 40
0
 40
0
 40
1
 40
1
 40
1
 40
1
 10
112.353400
 20
194.251680
 30
0.0
 10
112.573330
 20
194.344580
 30
0.0
 10
112.780570
 20
194.467430
 30
0.0
 10
112.967600
 20
194.615810
 30
0.0
  0
LWPOLYLINE
  5
119
100
AcDbEntity
  8
Layer_1
 62
7
100
AcDbPolyline
 90
5
 70
0
 10
101.428780
 20
210.404625
 30
0.0
 10
101.428780
 20
210.404625
 30
0.0
 10
102.013440
 20
210.504850
 30
0.0
 10
103.399900
 20
210.504850
 30
0.0
 10
104.368750
 20
211.139614
 30
0.0
  0
LWPOLYLINE
  5
11a
100
AcDbEntity
  8
Layer_1
 62
7
100
AcDbPolyline
 90
7
 70
0
 10
109.235090
 20
184.410470
 30
0.0
 10
109.235090
 20
184.410470
 30
0.0
 10
110.850010
 20
183.878300
 30
0.0
 10
113.205320
 20
183.460690
 30
0.0
 10
115.961540
 20
183.594330
 30
0.0
 10
116.629710
 20
183.978530
 30
0.0
 10
117.172590
 20
184.315980
 30
0.0
  0
LWPOLYLINE
  5
11b
100
AcDbEntity
  8
Layer_1
 62
7
100
AcDbPolyline
 90
9
 70
0
 10
113.818050
 20
172.126250
 30
0.0
 10
113.818050
 20
172.126250
 30
0.0
 10
114.054280
 20
172.315240
 30
0.0
 10
114.644870
 20
172.244340
 30
0.0
 10
115.566190
 20
171.949050
 30
0.0
 10
118.542750
 20
171.889950
 30
0.0
 10
120.054660
 20
172.315180
 30
0.0
 10
120.822420
 20
172.988450
 30
0.0
 10
120.621620
 20
173.638090
 30
0.0
  0
LWPOLYLINE
  5
11c
100
AcDbEntity
  8
Layer_1
 62
7
100
AcDbPolyline
 90
7
 70
0
 10
114.762990
 20
160.078260
 30
0.0
 10
114.762990
 20
160.078260
 30
0.0
 10
117.597810
 20
159.653030
 30
0.0
 10
122.003600
 20
159.676630
 30
0.0
 10
124.141520
 20
159.842000
 30
0.0
 10
124.802980
 20
160.172730
 30
0.0
 10
124.873880
 20
160.456210
 30
0.0
  0
SPLINE
  5
11d
100
AcDbEntity
  8
Layer_1
 62
7
100
AcDbSpline
 70
8
 71
3
 72
8
 73
4
 74
0
 40
0
 40
0
 40
0
 40
0
 40
1
 40
1
 40
1
 40
1
 10
111.975420
 20
147.097140
 30
0.0
 10
111.962820
 20
147.154740
 30
0.0
 10
111.928120
 20
147.207270
 30
0.0
 10
111.879920
 20
147.241340
 30
0.0
  0
SPLINE
  5
11e
100
AcDbEntity
  8
Layer_1
 62
7
100
AcDbSpline
 70
8
 71
3
 72
8
 73
4
 74
0
 40
0
 40
0
 40
0
 40
0
 40
1
 40
1
 40
1
 40
1
 10
111.879920
 20
147.241340
 30
0.0
 10
111.831720
 20
147.275440
 30
0.0
 10
111.770700
 20
147.290740
 30
0.0
 10
111.712170
 20
147.283440
 30
0.0
  0
SPLINE
  5
11f
100
AcDbEntity
  8
Layer_1
 62
7
100
AcDbSpline
 70
8
 71
3
 72
8
 73
4
 74
0
 40
0
 40
0
 40
0
 40
0
 40
1
 40
1
 40
1
 40
1
 10
111.712170
 20
147.283440
 30
0.0
 10
111.653670
 20
147.276440
 30
0.0
 10
111.598220
 20
147.246240
 30
0.0
 10
111.559940
 20
147.201340
 30
0.0
  0
SPLINE
  5
120
100
AcDbEntity
  8
Layer_1
 62
7
100
AcDbSpline
 70
8
 71
3
 72
8
 73
4
 74
0
 40
0
 40
0
 40
0
 40
0
 40
1
 40
1
 40
1
 40
1
 10
111.559940
 20
147.201340
 30
0.0
 10
111.521640
 20
147.156440
 30
0.0
 10
111.500940
 20
147.097010
 30
0.0
 10
111.502940
 20
147.038060
 30
0.0
  0
SPLINE
  5
121
100
AcDbEntity
  8
Layer_1
 62
7
100
AcDbSpline
 70
8
 71
3
 72
8
 73
4
 74
0
 40
0
 40
0
 40
0
 40
0
 40
1
 40
1
 40
1
 40
1
 10
111.502940
 20
147.038060
 30
0.0
 10
111.503940
 20
146.997360
 30
0.0
 10
111.516240
 20
146.957360
 30
0.0
 10
111.534740
 20
146.921170
 30
0.0
  0
SPLINE
  5
122
100
AcDbEntity
  8
Layer_1
 62
7
100
AcDbSpline
 70
8
 71
3
 72
8
 73
4
 74
0
 40
0
 40
0
 40
0
 40
0
 40
1
 40
1
 40
1
 40
1
 10
111.534740
 20
146.921170
 30
0.0
 10
111.553340
 20
146.884970
 30
0.0
 10
111.578440
 20
146.852370
 30
0.0
 10
111.606840
 20
146.823170
 30
0.0
  0
SPLINE
  5
123
100
AcDbEntity
  8
Layer_1
 62
7
100
AcDbSpline
 70
8
 71
3
 72
8
 73
4
 74
0
 40
0
 40
0
 40
0
 40
0
 40
1
 40
1
 40
1
 40
1
 10
111.606840
 20
146.823170
 30
0.0
 10
111.663540
 20
146.764770
 30
0.0
 10
111.732550
 20
146.720070
 30
0.0
 10
111.798200
 20
146.671910
 30
0.0
  0
SPLINE
  5
124
100
AcDbEntity
  8
Layer_1
 62
7
100
AcDbSpline
 70
8
 71
3
 72
8
 73
4
 74
0
 40
0
 40
0
 40
0
 40
0
 40
1
 40
1
 40
1
 40
1
 10
111.798200
 20
146.671910
 30
0.0
 10
112.054870
 20
146.483600
 30
0.0
 10
112.265140
 20
146.238350
 30
0.0
 10
112.518720
 20
146.045890
 30
0.0
  0
SPLINE
  5
125
100
AcDbEntity
  8
Layer_1
 62
7
100
AcDbSpline
 70
8
 71
3
 72
8
 73
4
 74
0
 40
0
 40
0
 40
0
 40
0
 40
1
 40
1
 40
1
 40
1
 10
112.518720
 20
146.045890
 30
0.0
 10
112.814080
 20
145.821720
 30
0.0
 10
113.159620
 20
145.675330
 30
0.0
 10
113.499090
 20
145.526170
 30
0.0
  0
SPLINE
  5
126
100
AcDbEntity
  8
Layer_1
 62
7
100
AcDbSpline
 70
8
 71
3
 72
8
 73
4
 74
0
 40
0
 40
0
 40
0
 40
0
 40
1
 40
1
 40
1
 40
1
 10
113.499090
 20
145.526170
 30
0.0
 10
113.812040
 20
145.388660
 30
0.0
 10
114.123120
 20
145.246900
 30
0.0
 10
114.432220
 20
145.100950
 30
0.0
  0
LWPOLYLINE
  5
127
100
AcDbEntity
  8
Layer_1
 62
7
100
AcDbPolyline
 90
6
 70
0
 10
125.818790
 20
146.376620
 30
0.0
 10
125.818790
 20
146.376620
 30
0.0
 10
126.986400
 20
146.661020
 30
0.0
 10
127.738100
 20
146.978410
 30
0.0
 10
127.696300
 20
147.153800
 30
0.0
 10
127.330660
 20
147.368810
 30
0.0
  0
SPLINE
  5
128
100
AcDbEntity
  8
Layer_1
 62
7
100
AcDbSpline
 70
8
 71
3
 72
8
 73
4
 74
0
 40
0
 40
0
 40
0
 40
0
 40
1
 40
1
 40
1
 40
1
 10
96.100370
 20
146.943620
 30
0.0
 10
96.044250
 20
146.896420
 30
0.0
 10
96.003480
 20
146.831230
 30
0.0
 10
95.985575
 20
146.760120
 30
0.0
  0
SPLINE
  5
129
100
AcDbEntity
  8
Layer_1
 62
7
100
AcDbSpline
 70
8
 71
3
 72
8
 73
4
 74
0
 40
0
 40
0
 40
0
 40
0
 40
1
 40
1
 40
1
 40
1
 10
95.985575
 20
146.760120
 30
0.0
 10
95.967675
 20
146.689020
 30
0.0
 10
95.972725
 20
146.612290
 30
0.0
 10
95.999795
 20
146.544130
 30
0.0
  0
SPLINE
  5
12a
100
AcDbEntity
  8
Layer_1
 62
7
100
AcDbSpline
 70
8
 71
3
 72
8
 73
4
 74
0
 40
0
 40
0
 40
0
 40
0
 40
1
 40
1
 40
1
 40
1
 10
95.999795
 20
146.544130
 30
0.0
 10
96.039565
 20
146.444010
 30
0.0
 10
96.123534
 20
146.367030
 30
0.0
 10
96.216000
 20
146.311760
 30
0.0
  0
SPLINE
  5
12b
100
AcDbEntity
  8
Layer_1
 62
7
100
AcDbSpline
 70
8
 71
3
 72
8
 73
4
 74
0
 40
0
 40
0
 40
0
 40
0
 40
1
 40
1
 40
1
 40
1
 10
96.216000
 20
146.311760
 30
0.0
 10
96.308470
 20
146.256460
 30
0.0
 10
96.410593
 20
146.219860
 30
0.0
 10
96.509277
 20
146.176640
 30
0.0
  0
SPLINE
  5
12c
100
AcDbEntity
  8
Layer_1
 62
7
100
AcDbSpline
 70
8
 71
3
 72
8
 73
4
 74
0
 40
0
 40
0
 40
0
 40
0
 40
1
 40
1
 40
1
 40
1
 10
96.509277
 20
146.176640
 30
0.0
 10
96.537137
 20
146.164440
 30
0.0
 10
96.564917
 20
146.151640
 30
0.0
 10
96.589957
 20
146.134340
 30
0.0
  0
SPLINE
  5
12d
100
AcDbEntity
  8
Layer_1
 62
7
100
AcDbSpline
 70
8
 71
3
 72
8
 73
4
 74
0
 40
0
 40
0
 40
0
 40
0
 40
1
 40
1
 40
1
 40
1
 10
96.589957
 20
146.134340
 30
0.0
 10
96.614997
 20
146.117140
 30
0.0
 10
96.637377
 20
146.095140
 30
0.0
 10
96.651257
 20
146.068040
 30
0.0
  0
SPLINE
  5
12e
100
AcDbEntity
  8
Layer_1
 62
7
100
AcDbSpline
 70
8
 71
3
 72
8
 73
4
 74
0
 40
0
 40
0
 40
0
 40
0
 40
1
 40
1
 40
1
 40
1
 10
96.651257
 20
146.068040
 30
0.0
 10
96.672007
 20
146.027640
 30
0.0
 10
96.671727
 20
145.977440
 30
0.0
 10
96.652140
 20
145.936450
 30
0.0
  0
SPLINE
  5
12f
100
AcDbEntity
  8
Layer_1
 62
7
100
AcDbSpline
 70
8
 71
3
 72
8
 73
4
 74
0
 40
0
 40
0
 40
0
 40
0
 40
1
 40
1
 40
1
 40
1
 10
96.652140
 20
145.936450
 30
0.0
 10
96.632550
 20
145.895450
 30
0.0
 10
96.594520
 20
145.864050
 30
0.0
 10
96.551030
 20
145.850850
 30
0.0
  0
SPLINE
  5
130
100
AcDbEntity
  8
Layer_1
 62
7
100
AcDbSpline
 70
8
 71
3
 72
8
 73
4
 74
0
 40
0
 40
0
 40
0
 40
0
 40
1
 40
1
 40
1
 40
1
 10
96.551030
 20
145.850850
 30
0.0
 10
96.511720
 20
145.838950
 30
0.0
 10
96.469400
 20
145.840850
 30
0.0
 10
96.428989
 20
145.848850
 30
0.0
  0
SPLINE
  5
131
100
AcDbEntity
  8
Layer_1
 62
7
100
AcDbSpline
 70
8
 71
3
 72
8
 73
4
 74
0
 40
0
 40
0
 40
0
 40
0
 40
1
 40
1
 40
1
 40
1
 10
96.428989
 20
145.848850
 30
0.0
 10
96.388579
 20
145.855850
 30
0.0
 10
96.349189
 20
145.868450
 30
0.0
 10
96.308818
 20
145.876050
 30
0.0
  0
SPLINE
  5
132
100
AcDbEntity
  8
Layer_1
 62
7
100
AcDbSpline
 70
8
 71
3
 72
8
 73
4
 74
0
 40
0
 40
0
 40
0
 40
0
 40
1
 40
1
 40
1
 40
1
 10
96.308818
 20
145.876050
 30
0.0
 10
96.165594
 20
145.903050
 30
0.0
 10
96.018867
 20
145.871050
 30
0.0
 10
95.874504
 20
145.850950
 30
0.0
  0
SPLINE
  5
133
100
AcDbEntity
  8
Layer_1
 62
7
100
AcDbSpline
 70
8
 71
3
 72
8
 73
4
 74
0
 40
0
 40
0
 40
0
 40
0
 40
1
 40
1
 40
1
 40
1
 10
95.874504
 20
145.850950
 30
0.0
 10
95.534863
 20
145.803850
 30
0.0
 10
95.190078
 20
145.823550
 30
0.0
 10
94.847188
 20
145.825950
 30
0.0
  0
SPLINE
  5
134
100
AcDbEntity
  8
Layer_1
 62
7
100
AcDbSpline
 70
8
 71
3
 72
8
 73
4
 74
0
 40
0
 40
0
 40
0
 40
0
 40
1
 40
1
 40
1
 40
1
 10
94.847188
 20
145.825950
 30
0.0
 10
94.762308
 20
145.826550
 30
0.0
 10
94.674811
 20
145.825580
 30
0.0
 10
94.596622
 20
145.792550
 30
0.0
  0
SPLINE
  5
135
100
AcDbEntity
  8
Layer_1
 62
7
100
AcDbSpline
 70
8
 71
3
 72
8
 73
4
 74
0
 40
0
 40
0
 40
0
 40
0
 40
1
 40
1
 40
1
 40
1
 10
94.596622
 20
145.792550
 30
0.0
 10
94.528112
 20
145.763650
 30
0.0
 10
94.472061
 20
145.712250
 30
0.0
 10
94.412874
 20
145.667260
 30
0.0
  0
SPLINE
  5
136
100
AcDbEntity
  8
Layer_1
 62
7
100
AcDbSpline
 70
8
 71
3
 72
8
 73
4
 74
0
 40
0
 40
0
 40
0
 40
0
 40
1
 40
1
 40
1
 40
1
 10
94.412874
 20
145.667260
 30
0.0
 10
94.370284
 20
145.634860
 30
0.0
 10
94.324264
 20
145.604060
 30
0.0
 10
94.295944
 20
145.558680
 30
0.0
  0
SPLINE
  5
137
100
AcDbEntity
  8
Layer_1
 62
7
100
AcDbSpline
 70
8
 71
3
 72
8
 73
4
 74
0
 40
0
 40
0
 40
0
 40
0
 40
1
 40
1
 40
1
 40
1
 10
94.295944
 20
145.558680
 30
0.0
 10
94.275504
 20
145.525880
 30
0.0
 10
94.265714
 20
145.487380
 30
0.0
 10
94.262064
 20
145.448950
 30
0.0
  0
SPLINE
  5
138
100
AcDbEntity
  8
Layer_1
 62
7
100
AcDbSpline
 70
8
 71
3
 72
8
 73
4
 74
0
 40
0
 40
0
 40
0
 40
0
 40
1
 40
1
 40
1
 40
1
 10
94.262064
 20
145.448950
 30
0.0
 10
94.258364
 20
145.410450
 30
0.0
 10
94.260664
 20
145.371750
 30
0.0
 10
94.262532
 20
145.333180
 30
0.0
  0
SPLINE
  5
139
100
AcDbEntity
  8
Layer_1
 62
7
100
AcDbSpline
 70
8
 71
3
 72
8
 73
4
 74
0
 40
0
 40
0
 40
0
 40
0
 40
1
 40
1
 40
1
 40
1
 10
94.262532
 20
145.333180
 30
0.0
 10
94.341172
 20
143.749420
 30
0.0
 10
93.931938
 20
142.140000
 30
0.0
 10
94.262532
 20
140.589140
 30
0.0
  0
SPLINE
  5
13a
100
AcDbEntity
  8
Layer_1
 62
7
100
AcDbSpline
 70
8
 71
3
 72
8
 73
4
 74
0
 40
0
 40
0
 40
0
 40
0
 40
1
 40
1
 40
1
 40
1
 10
94.262532
 20
140.589140
 30
0.0
 10
94.266032
 20
140.572540
 30
0.0
 10
94.269732
 20
140.555940
 30
0.0
 10
94.270932
 20
140.539040
 30
0.0
  0
SPLINE
  5
13b
100
AcDbEntity
  8
Layer_1
 62
7
100
AcDbSpline
 70
8
 71
3
 72
8
 73
4
 74
0
 40
0
 40
0
 40
0
 40
0
 40
1
 40
1
 40
1
 40
1
 10
94.270932
 20
140.539040
 30
0.0
 10
94.273232
 20
140.507940
 30
0.0
 10
94.267232
 20
140.476340
 30
0.0
 10
94.254622
 20
140.447840
 30
0.0
  0
SPLINE
  5
13c
100
AcDbEntity
  8
Layer_1
 62
7
100
AcDbSpline
 70
8
 71
3
 72
8
 73
4
 74
0
 40
0
 40
0
 40
0
 40
0
 40
1
 40
1
 40
1
 40
1
 10
94.254622
 20
140.447840
 30
0.0
 10
94.242002
 20
140.419340
 30
0.0
 10
94.222822
 20
140.393840
 30
0.0
 10
94.199552
 20
140.373040
 30
0.0
  0
SPLINE
  5
13d
100
AcDbEntity
  8
Layer_1
 62
7
100
AcDbSpline
 70
8
 71
3
 72
8
 73
4
 74
0
 40
0
 40
0
 40
0
 40
0
 40
1
 40
1
 40
1
 40
1
 10
94.199552
 20
140.373040
 30
0.0
 10
94.153002
 20
140.331440
 30
0.0
 10
94.090962
 20
140.309640
 30
0.0
 10
94.028725
 20
140.305240
 30
0.0
  0
SPLINE
  5
13e
100
AcDbEntity
  8
Layer_1
 62
7
100
AcDbSpline
 70
8
 71
3
 72
8
 73
4
 74
0
 40
0
 40
0
 40
0
 40
0
 40
1
 40
1
 40
1
 40
1
 10
94.028725
 20
140.305240
 30
0.0
 10
94.003715
 20
140.303240
 30
0.0
 10
93.978605
 20
140.304370
 30
0.0
 10
93.953555
 20
140.305240
 30
0.0
  0
SPLINE
  5
13f
100
AcDbEntity
  8
Layer_1
 62
7
100
AcDbSpline
 70
8
 71
3
 72
8
 73
4
 74
0
 40
0
 40
0
 40
0
 40
0
 40
1
 40
1
 40
1
 40
1
 10
93.953555
 20
140.305240
 30
0.0
 10
93.257856
 20
140.329440
 30
0.0
 10
92.561508
 20
140.335040
 30
0.0
 10
91.865511
 20
140.321940
 30
0.0
  0
SPLINE
  5
140
100
AcDbEntity
  8
Layer_1
 62
7
100
AcDbSpline
 70
8
 71
3
 72
8
 73
4
 74
0
 40
0
 40
0
 40
0
 40
0
 40
1
 40
1
 40
1
 40
1
 10
96.100364
 20
146.943730
 30
0.0
 10
97.286409
 20
146.503330
 30
0.0
 10
98.483870
 20
146.093670
 30
0.0
 10
99.691138
 20
145.715310
 30
0.0
  0
SPLINE
  5
141
100
AcDbEntity
  8
Layer_1
 62
7
100
AcDbSpline
 70
8
 71
3
 72
8
 73
4
 74
0
 40
0
 40
0
 40
0
 40
0
 40
1
 40
1
 40
1
 40
1
 10
99.691138
 20
145.715310
 30
0.0
 10
100.840510
 20
145.355090
 30
0.0
 10
102.043090
 20
145.019710
 30
0.0
 10
103.234670
 20
145.195590
 30
0.0
  0
SPLINE
  5
142
100
AcDbEntity
  8
Layer_1
 62
7
100
AcDbSpline
 70
8
 71
3
 72
8
 73
4
 74
0
 40
0
 40
0
 40
0
 40
0
 40
1
 40
1
 40
1
 40
1
 10
103.234670
 20
145.195590
 30
0.0
 10
103.660130
 20
145.258390
 30
0.0
 10
104.075920
 20
145.386330
 30
0.0
 10
104.463090
 20
145.573570
 30
0.0
  0
SPLINE
  5
143
100
AcDbEntity
  8
Layer_1
 62
7
100
AcDbSpline
 70
8
 71
3
 72
8
 73
4
 74
0
 40
0
 40
0
 40
0
 40
0
 40
1
 40
1
 40
1
 40
1
 10
114.432210
 20
145.101100
 30
0.0
 10
113.858390
 20
144.959790
 30
0.0
 10
113.273140
 20
144.864890
 30
0.0
 10
112.684070
 20
144.817620
 30
0.0
  0
SPLINE
  5
144
100
AcDbEntity
  8
Layer_1
 62
7
100
AcDbSpline
 70
8
 71
3
 72
8
 73
4
 74
0
 40
0
 40
0
 40
0
 40
0
 40
1
 40
1
 40
1
 40
1
 10
112.684070
 20
144.817620
 30
0.0
 10
112.086900
 20
144.769720
 30
0.0
 10
111.485930
 20
144.770720
 30
0.0
 10
110.888680
 20
144.817620
 30
0.0
  0
SPLINE
  5
145
100
AcDbEntity
  8
Layer_1
 62
7
100
AcDbSpline
 70
8
 71
3
 72
8
 73
4
 74
0
 40
0
 40
0
 40
0
 40
0
 40
1
 40
1
 40
1
 40
1
 10
110.888680
 20
144.817620
 30
0.0
 10
110.108420
 20
144.878920
 30
0.0
 10
109.335860
 20
145.018170
 30
0.0
 10
108.573580
 20
145.195590
 30
0.0
  0
SPLINE
  5
146
100
AcDbEntity
  8
Layer_1
 62
7
100
AcDbSpline
 70
8
 71
3
 72
8
 73
4
 74
0
 40
0
 40
0
 40
0
 40
0
 40
1
 40
1
 40
1
 40
1
 10
108.573580
 20
145.195590
 30
0.0
 10
107.669980
 20
145.405900
 30
0.0
 10
106.776320
 20
145.671000
 30
0.0
 10
105.927750
 20
146.046040
 30
0.0
  0
SPLINE
  5
147
100
AcDbEntity
  8
Layer_1
 62
7
100
AcDbSpline
 70
8
 71
3
 72
8
 73
4
 74
0
 40
0
 40
0
 40
0
 40
0
 40
1
 40
1
 40
1
 40
1
 10
105.927750
 20
146.046040
 30
0.0
 10
105.065610
 20
146.427080
 30
0.0
 10
104.253340
 20
146.920810
 30
0.0
 10
103.518150
 20
147.510700
 30
0.0
  0
SPLINE
  5
148
100
AcDbEntity
  8
Layer_1
 62
7
100
AcDbSpline
 70
8
 71
3
 72
8
 73
4
 74
0
 40
0
 40
0
 40
0
 40
0
 40
1
 40
1
 40
1
 40
1
 10
125.818740
 20
146.376770
 30
0.0
 10
124.558100
 20
146.292170
 30
0.0
 10
123.298130
 20
146.197690
 30
0.0
 10
122.038980
 20
146.093290
 30
0.0
  0
SPLINE
  5
149
100
AcDbEntity
  8
Layer_1
 62
7
100
AcDbSpline
 70
8
 71
3
 72
8
 73
4
 74
0
 40
0
 40
0
 40
0
 40
0
 40
1
 40
1
 40
1
 40
1
 10
122.038980
 20
146.093290
 30
0.0
 10
120.796860
 20
145.990300
 30
0.0
 10
119.546960
 20
145.877670
 30
0.0
 10
118.306470
 20
145.998790
 30
0.0
  0
SPLINE
  5
14a
100
AcDbEntity
  8
Layer_1
 62
7
100
AcDbSpline
 70
8
 71
3
 72
8
 73
4
 74
0
 40
0
 40
0
 40
0
 40
0
 40
1
 40
1
 40
1
 40
1
 10
118.306470
 20
145.998790
 30
0.0
 10
117.269860
 20
146.100000
 30
0.0
 10
116.257000
 20
146.362860
 30
0.0
 10
115.235410
 20
146.565760
 30
0.0
  0
SPLINE
  5
14b
100
AcDbEntity
  8
Layer_1
 62
7
100
AcDbSpline
 70
8
 71
3
 72
8
 73
4
 74
0
 40
0
 40
0
 40
0
 40
0
 40
1
 40
1
 40
1
 40
1
 10
115.235410
 20
146.565760
 30
0.0
 10
114.004330
 20
146.810270
 30
0.0
 10
112.756070
 20
146.968280
 30
0.0
 10
111.502890
 20
147.038230
 30
0.0
  0
SPLINE
  5
14c
100
AcDbEntity
  8
Layer_1
 62
7
100
AcDbSpline
 70
8
 71
3
 72
8
 73
4
 74
0
 40
0
 40
0
 40
0
 40
0
 40
1
 40
1
 40
1
 40
1
 10
114.762940
 20
160.078410
 30
0.0
 10
115.533340
 20
158.505920
 30
0.0
 10
116.469370
 20
157.014630
 30
0.0
 10
117.550520
 20
155.637190
 30
0.0
  0
SPLINE
  5
14d
100
AcDbEntity
  8
Layer_1
 62
7
100
AcDbSpline
 70
8
 71
3
 72
8
 73
4
 74
0
 40
0
 40
0
 40
0
 40
0
 40
1
 40
1
 40
1
 40
1
 10
117.550520
 20
155.637190
 30
0.0
 10
118.467300
 20
154.469170
 30
0.0
 10
119.485700
 20
153.385580
 30
0.0
 10
120.479830
 20
152.282650
 30
0.0
  0
SPLINE
  5
14e
100
AcDbEntity
  8
Layer_1
 62
7
100
AcDbSpline
 70
8
 71
3
 72
8
 73
4
 74
0
 40
0
 40
0
 40
0
 40
0
 40
1
 40
1
 40
1
 40
1
 10
120.479830
 20
152.282650
 30
0.0
 10
121.368730
 20
151.296470
 30
0.0
 10
122.247950
 20
150.285550
 30
0.0
 10
123.314650
 20
149.495070
 30
0.0
  0
SPLINE
  5
14f
100
AcDbEntity
  8
Layer_1
 62
7
100
AcDbSpline
 70
8
 71
3
 72
8
 73
4
 74
0
 40
0
 40
0
 40
0
 40
0
 40
1
 40
1
 40
1
 40
1
 10
123.314650
 20
149.495070
 30
0.0
 10
124.228240
 20
148.818050
 30
0.0
 10
125.258910
 20
148.318250
 30
0.0
 10
126.291210
 20
147.841430
 30
0.0
  0
SPLINE
  5
150
100
AcDbEntity
  8
Layer_1
 62
7
100
AcDbSpline
 70
8
 71
3
 72
8
 73
4
 74
0
 40
0
 40
0
 40
0
 40
0
 40
1
 40
1
 40
1
 40
1
 10
126.291210
 20
147.841430
 30
0.0
 10
126.636730
 20
147.681830
 30
0.0
 10
126.983220
 20
147.524340
 30
0.0
 10
127.330650
 20
147.368960
 30
0.0
  0
SPLINE
  5
151
100
AcDbEntity
  8
Layer_1
 62
7
100
AcDbSpline
 70
8
 71
3
 72
8
 73
4
 74
0
 40
0
 40
0
 40
0
 40
0
 40
1
 40
1
 40
1
 40
1
 10
113.818000
 20
172.126400
 30
0.0
 10
113.891200
 20
171.754240
 30
0.0
 10
114.002160
 20
171.389540
 30
0.0
 10
114.148730
 20
171.039720
 30
0.0
  0
SPLINE
  5
152
100
AcDbEntity
  8
Layer_1
 62
7
100
AcDbSpline
 70
8
 71
3
 72
8
 73
4
 74
0
 40
0
 40
0
 40
0
 40
0
 40
1
 40
1
 40
1
 40
1
 10
114.148730
 20
171.039720
 30
0.0
 10
114.712830
 20
169.693360
 30
0.0
 10
115.769970
 20
168.627720
 30
0.0
 10
116.747310
 20
167.543430
 30
0.0
  0
SPLINE
  5
153
100
AcDbEntity
  8
Layer_1
 62
7
100
AcDbSpline
 70
8
 71
3
 72
8
 73
4
 74
0
 40
0
 40
0
 40
0
 40
0
 40
1
 40
1
 40
1
 40
1
 10
116.747310
 20
167.543430
 30
0.0
 10
118.203620
 20
165.927760
 30
0.0
 10
119.543590
 20
164.185380
 30
0.0
 10
121.235780
 20
162.818730
 30
0.0
  0
SPLINE
  5
154
100
AcDbEntity
  8
Layer_1
 62
7
100
AcDbSpline
 70
8
 71
3
 72
8
 73
4
 74
0
 40
0
 40
0
 40
0
 40
0
 40
1
 40
1
 40
1
 40
1
 10
121.235780
 20
162.818730
 30
0.0
 10
121.949990
 20
162.241920
 30
0.0
 10
122.720110
 20
161.738000
 30
0.0
 10
123.503640
 20
161.259580
 30
0.0
  0
SPLINE
  5
155
100
AcDbEntity
  8
Layer_1
 62
7
100
AcDbSpline
 70
8
 71
3
 72
8
 73
4
 74
0
 40
0
 40
0
 40
0
 40
0
 40
1
 40
1
 40
1
 40
1
 10
123.503640
 20
161.259580
 30
0.0
 10
123.955500
 20
160.983670
 30
0.0
 10
124.412320
 20
160.715880
 30
0.0
 10
124.873800
 20
160.456380
 30
0.0
  0
SPLINE
  5
156
100
AcDbEntity
  8
Layer_1
 62
7
100
AcDbSpline
 70
8
 71
3
 72
8
 73
4
 74
0
 40
0
 40
0
 40
0
 40
0
 40
1
 40
1
 40
1
 40
1
 10
109.235040
 20
184.410620
 30
0.0
 10
109.767220
 20
183.746520
 30
0.0
 10
110.302700
 20
183.085050
 30
0.0
 10
110.841440
 20
182.426250
 30
0.0
  0
SPLINE
  5
157
100
AcDbEntity
  8
Layer_1
 62
7
100
AcDbSpline
 70
8
 71
3
 72
8
 73
4
 74
0
 40
0
 40
0
 40
0
 40
0
 40
1
 40
1
 40
1
 40
1
 10
110.841440
 20
182.426250
 30
0.0
 10
112.353120
 20
180.577690
 30
0.0
 10
113.896440
 20
178.743930
 30
0.0
 10
115.660630
 20
177.134580
 30
0.0
  0
SPLINE
  5
158
100
AcDbEntity
  8
Layer_1
 62
7
100
AcDbSpline
 70
8
 71
3
 72
8
 73
4
 74
0
 40
0
 40
0
 40
0
 40
0
 40
1
 40
1
 40
1
 40
1
 10
115.660630
 20
177.134580
 30
0.0
 10
116.564620
 20
176.309940
 30
0.0
 10
117.524990
 20
175.546060
 30
0.0
 10
118.542700
 20
174.866730
 30
0.0
  0
SPLINE
  5
159
100
AcDbEntity
  8
Layer_1
 62
7
100
AcDbSpline
 70
8
 71
3
 72
8
 73
4
 74
0
 40
0
 40
0
 40
0
 40
0
 40
1
 40
1
 40
1
 40
1
 10
118.542700
 20
174.866730
 30
0.0
 10
119.212490
 20
174.419640
 30
0.0
 10
119.906840
 20
174.009340
 30
0.0
 10
120.621570
 20
173.638300
 30
0.0
  0
SPLINE
  5
15a
100
AcDbEntity
  8
Layer_1
 62
7
100
AcDbSpline
 70
8
 71
3
 72
8
 73
4
 74
0
 40
0
 40
0
 40
0
 40
0
 40
1
 40
1
 40
1
 40
1
 10
107.061680
 20
194.238000
 30
0.0
 10
107.535950
 20
193.295990
 30
0.0
 10
108.089770
 20
192.394040
 30
0.0
 10
108.715320
 20
191.544920
 30
0.0
  0
SPLINE
  5
15b
100
AcDbEntity
  8
Layer_1
 62
7
100
AcDbSpline
 70
8
 71
3
 72
8
 73
4
 74
0
 40
0
 40
0
 40
0
 40
0
 40
1
 40
1
 40
1
 40
1
 10
108.715320
 20
191.544920
 30
0.0
 10
109.716660
 20
190.185700
 30
0.0
 10
110.895800
 20
188.968620
 30
0.0
 10
111.975370
 20
187.670670
 30
0.0
  0
SPLINE
  5
15c
100
AcDbEntity
  8
Layer_1
 62
7
100
AcDbSpline
 70
8
 71
3
 72
8
 73
4
 74
0
 40
0
 40
0
 40
0
 40
0
 40
1
 40
1
 40
1
 40
1
 10
111.975370
 20
187.670670
 30
0.0
 10
112.283510
 20
187.300200
 30
0.0
 10
112.584770
 20
186.921780
 30
0.0
 10
112.935020
 20
186.590840
 30
0.0
  0
SPLINE
  5
15d
100
AcDbEntity
  8
Layer_1
 62
7
100
AcDbSpline
 70
8
 71
3
 72
8
 73
4
 74
0
 40
0
 40
0
 40
0
 40
0
 40
1
 40
1
 40
1
 40
1
 10
112.935020
 20
186.590840
 30
0.0
 10
113.285270
 20
186.259900
 30
0.0
 10
113.689910
 20
185.975270
 30
0.0
 10
114.148730
 20
185.828030
 30
0.0
  0
SPLINE
  5
15e
100
AcDbEntity
  8
Layer_1
 62
7
100
AcDbSpline
 70
8
 71
3
 72
8
 73
4
 74
0
 40
0
 40
0
 40
0
 40
0
 40
1
 40
1
 40
1
 40
1
 10
114.148730
 20
185.828030
 30
0.0
 10
114.666190
 20
185.661970
 30
0.0
 10
115.222880
 20
185.678300
 30
0.0
 10
115.757960
 20
185.583280
 30
0.0
  0
SPLINE
  5
15f
100
AcDbEntity
  8
Layer_1
 62
7
100
AcDbSpline
 70
8
 71
3
 72
8
 73
4
 74
0
 40
0
 40
0
 40
0
 40
0
 40
1
 40
1
 40
1
 40
1
 10
115.757960
 20
185.583280
 30
0.0
 10
116.025500
 20
185.535780
 30
0.0
 10
116.290800
 20
185.459020
 30
0.0
 10
116.526180
 20
185.323260
 30
0.0
  0
SPLINE
  5
160
100
AcDbEntity
  8
Layer_1
 62
7
100
AcDbSpline
 70
8
 71
3
 72
8
 73
4
 74
0
 40
0
 40
0
 40
0
 40
0
 40
1
 40
1
 40
1
 40
1
 10
116.526180
 20
185.323260
 30
0.0
 10
116.761570
 20
185.187510
 30
0.0
 10
116.966310
 20
184.989040
 30
0.0
 10
117.078040
 20
184.741350
 30
0.0
  0
SPLINE
  5
161
100
AcDbEntity
  8
Layer_1
 62
7
100
AcDbSpline
 70
8
 71
3
 72
8
 73
4
 74
0
 40
0
 40
0
 40
0
 40
0
 40
1
 40
1
 40
1
 40
1
 10
117.078040
 20
184.741350
 30
0.0
 10
117.138140
 20
184.608060
 30
0.0
 10
117.170540
 20
184.462340
 30
0.0
 10
117.172540
 20
184.316130
 30
0.0
  0
SPLINE
  5
162
100
AcDbEntity
  8
Layer_1
 62
7
100
AcDbSpline
 70
8
 71
3
 72
8
 73
4
 74
0
 40
0
 40
0
 40
0
 40
0
 40
1
 40
1
 40
1
 40
1
 10
104.604910
 20
202.505953
 30
0.0
 10
105.308040
 20
201.653060
 30
0.0
 10
106.032800
 20
200.818005
 30
0.0
 10
106.778270
 20
200.001862
 30
0.0
  0
SPLINE
  5
163
100
AcDbEntity
  8
Layer_1
 62
7
100
AcDbSpline
 70
8
 71
3
 72
8
 73
4
 74
0
 40
0
 40
0
 40
0
 40
0
 40
1
 40
1
 40
1
 40
1
 10
106.778270
 20
200.001862
 30
0.0
 10
107.807880
 20
198.874639
 30
0.0
 10
108.878640
 20
197.781966
 30
0.0
 10
110.038320
 20
196.789060
 30
0.0
  0
SPLINE
  5
164
100
AcDbEntity
  8
Layer_1
 62
7
100
AcDbSpline
 70
8
 71
3
 72
8
 73
4
 74
0
 40
0
 40
0
 40
0
 40
0
 40
1
 40
1
 40
1
 40
1
 10
110.038320
 20
196.789060
 30
0.0
 10
110.962640
 20
195.997670
 30
0.0
 10
111.942240
 20
195.270870
 30
0.0
 10
112.967630
 20
194.615700
 30
0.0
  0
SPLINE
  5
165
100
AcDbEntity
  8
Layer_1
 62
7
100
AcDbSpline
 70
8
 71
3
 72
8
 73
4
 74
0
 40
0
 40
0
 40
0
 40
0
 40
1
 40
1
 40
1
 40
1
 10
101.428780
 20
210.404673
 30
0.0
 10
102.265730
 20
209.315456
 30
0.0
 10
103.182140
 20
208.287301
 30
0.0
 10
104.168300
 20
207.331074
 30
0.0
  0
SPLINE
  5
166
100
AcDbEntity
  8
Layer_1
 62
7
100
AcDbSpline
 70
8
 71
3
 72
8
 73
4
 74
0
 40
0
 40
0
 40
0
 40
0
 40
1
 40
1
 40
1
 40
1
 10
104.168300
 20
207.331074
 30
0.0
 10
104.893560
 20
206.627829
 30
0.0
 10
105.656170
 20
205.963752
 30
0.0
 10
106.440090
 20
205.326554
 30
0.0
  0
SPLINE
  5
167
100
AcDbEntity
  8
Layer_1
 62
7
100
AcDbSpline
 70
8
 71
3
 72
8
 73
4
 74
0
 40
0
 40
0
 40
0
 40
0
 40
1
 40
1
 40
1
 40
1
 10
106.440090
 20
205.326554
 30
0.0
 10
107.242200
 20
204.674576
 30
0.0
 10
108.066940
 20
204.050446
 30
0.0
 10
108.912330
 20
203.455667
 30
0.0
  0
SPLINE
  5
168
100
AcDbEntity
  8
Layer_1
 62
7
100
AcDbSpline
 70
8
 71
3
 72
8
 73
4
 74
0
 40
0
 40
0
 40
0
 40
0
 40
1
 40
1
 40
1
 40
1
 10
97.152472
 20
217.620950
 30
0.0
 10
98.099566
 20
216.718723
 30
0.0
 10
99.057372
 20
215.827741
 30
0.0
 10
100.025620
 20
214.948256
 30
0.0
  0
SPLINE
  5
169
100
AcDbEntity
  8
Layer_1
 62
7
100
AcDbSpline
 70
8
 71
3
 72
8
 73
4
 74
0
 40
0
 40
0
 40
0
 40
0
 40
1
 40
1
 40
1
 40
1
 10
100.025620
 20
214.948256
 30
0.0
 10
101.450990
 20
213.653552
 30
0.0
 10
102.899000
 20
212.383762
 30
0.0
 10
104.368750
 20
211.139664
 30
0.0
  0
SPLINE
  5
16a
100
AcDbEntity
  8
Layer_1
 62
7
100
AcDbSpline
 70
8
 71
3
 72
8
 73
4
 74
0
 40
0
 40
0
 40
0
 40
0
 40
1
 40
1
 40
1
 40
1
 10
95.147952
 20
224.102236
 30
0.0
 10
95.531641
 20
222.895392
 30
0.0
 10
96.173891
 20
221.771453
 30
0.0
 10
97.018836
 20
220.828184
 30
0.0
  0
SPLINE
  5
16b
100
AcDbEntity
  8
Layer_1
 62
7
100
AcDbSpline
 70
8
 71
3
 72
8
 73
4
 74
0
 40
0
 40
0
 40
0
 40
0
 40
1
 40
1
 40
1
 40
1
 10
97.018836
 20
220.828184
 30
0.0
 10
97.820735
 20
219.932970
 30
0.0
 10
98.804202
 20
219.201088
 30
0.0
 10
99.891984
 20
218.690028
 30
0.0
  0
SPLINE
  5
16c
100
AcDbEntity
  8
Layer_1
 62
7
100
AcDbSpline
 70
8
 71
3
 72
8
 73
4
 74
0
 40
0
 40
0
 40
0
 40
0
 40
1
 40
1
 40
1
 40
1
 10
91.673446
 20
234.258479
 30
0.0
 10
92.036867
 20
232.514746
 30
0.0
 10
92.646100
 20
230.822431
 30
0.0
 10
93.477515
 20
229.247176
 30
0.0
  0
SPLINE
  5
16d
100
AcDbEntity
  8
Layer_1
 62
7
100
AcDbSpline
 70
8
 71
3
 72
8
 73
4
 74
0
 40
0
 40
0
 40
0
 40
0
 40
1
 40
1
 40
1
 40
1
 10
93.477515
 20
229.247176
 30
0.0
 10
94.358218
 20
227.578535
 30
0.0
 10
95.488213
 20
226.041744
 30
0.0
 10
96.818385
 20
224.703595
 30
0.0
  0
LWPOLYLINE
  5
16e
100
AcDbEntity
  8
Layer_1
 62
7
100
AcDbPolyline
 90
9
 70
0
 10
103.518160
 20
147.510590
 30
0.0
 10
103.518160
 20
147.510590
 30
0.0
 10
103.257840
 20
147.462890
 30
0.0
 10
103.165940
 20
147.270790
 30
0.0
 10
103.182640
 20
146.786360
 30
0.0
 10
103.449910
 20
146.301940
 30
0.0
 10
104.168200
 20
145.951150
 30
0.0
 10
104.377000
 20
145.809160
 30
0.0
 10
104.463100
 20
145.573480
 30
0.0
  0
ENDSEC
  0
SECTION
  2
OBJECTS
  0
DICTIONARY
  5
C
330
0
100
AcDbDictionary
  3
ACAD_GROUP
350
D
  3
ACAD_MLINESTYLE
350
17
  0
DICTIONARY
  5
D
330
C
100
AcDbDictionary
  0
DICTIONARY
  5
1A
330
C
100
AcDbDictionary
  0
DICTIONARY
  5
17
330
C
100
AcDbDictionary
  3
STANDARD
350
18
  0
DICTIONARY
  5
19
330
C
100
AcDbDictionary
  0
ENDSEC
  0
EOF
